<svg id="Layer_1" data-name="Layer 1" xmlns="http://www.w3.org/2000/svg" xmlns:xlink="http://www.w3.org/1999/xlink" viewBox="0 0 270.3 117.09"><defs><style>.cls-1{fill:#009ac1;}.cls-2{fill:url(#New_Gradient_Swatch_1);}.cls-3{fill:#1d1d1b;}.cls-4{fill:#163d4e;}</style><linearGradient id="New_Gradient_Swatch_1" y1="57.43" x2="92.17" y2="57.43" gradientUnits="userSpaceOnUse"><stop offset="0" stop-color="#007eb1"/><stop offset="1" stop-color="#183d4e"/></linearGradient></defs><title>flexpay-logo</title><path class="cls-1" d="M1.76,115.53a41,41,0,0,0,26.77-20l15.4-32.17S60,37.65,90.77,46.57c0,0-16.19,1.08-29.36,26.38,0,0-9.72,21.85-13.43,26.62C48,99.57,36,123.28,1.76,115.53Z"/><path class="cls-2" d="M0,114.85s20.48-8.41,27.92-33.59l10.28-46S51.13-2.6,92.17.14c0,0-20,6-29.39,42.54,0,0-6.05,31.06-9.36,38.3C53.42,81,45.1,115.08,0,114.85Z"/><path class="cls-3" d="M177.89,108.2h-5v-8h.86v7.29h4.12Z"/><path class="cls-3" d="M180.22,100.55a.57.57,0,0,1-.08.28.64.64,0,0,1-.2.2.6.6,0,0,1-.56,0,.64.64,0,0,1-.2-.2.55.55,0,0,1-.07-.28.53.53,0,0,1,.07-.28.55.55,0,0,1,.2-.2.57.57,0,0,1,.28-.08.54.54,0,0,1,.21.05.62.62,0,0,1,.19.12.57.57,0,0,1,.12.18A.78.78,0,0,1,180.22,100.55Zm-.16,7.65h-.81v-5.56h.81Z"/><path class="cls-3" d="M186.53,105.42a5.83,5.83,0,0,1-.15,1.38,2,2,0,0,1-.53,1,1.5,1.5,0,0,1-.58.35,2,2,0,0,1-.78.14,2.68,2.68,0,0,1-.59-.06,1.6,1.6,0,0,1-.52-.23,2,2,0,0,1-.46-.43v3.14h-.81v-8h.81v.65a1.79,1.79,0,0,1,.7-.56,2.11,2.11,0,0,1,.87-.16,2.45,2.45,0,0,1,.78.13,1.51,1.51,0,0,1,.58.36,2,2,0,0,1,.53,1A5.83,5.83,0,0,1,186.53,105.42Zm-.81,0a3.51,3.51,0,0,0-.29-1.55,1.1,1.1,0,0,0-1.1-.58,1.15,1.15,0,0,0-1.12.58,4.29,4.29,0,0,0,0,3.1,1.12,1.12,0,0,0,1.12.58,1.1,1.1,0,0,0,1.1-.57A3.53,3.53,0,0,0,185.72,105.42Z"/><path class="cls-3" d="M189.24,100.55a.57.57,0,0,1-.08.28.64.64,0,0,1-.2.2.6.6,0,0,1-.56,0,.64.64,0,0,1-.2-.2.55.55,0,0,1-.07-.28.53.53,0,0,1,.07-.28.55.55,0,0,1,.2-.2.57.57,0,0,1,.28-.08.63.63,0,0,1,.22.05.55.55,0,0,1,.3.3A.52.52,0,0,1,189.24,100.55Zm-.16,7.65h-.81v-5.56h.81Z"/><path class="cls-3" d="M195.1,108.2h-.81v-.53a2,2,0,0,1-.7.47,2.62,2.62,0,0,1-.91.13,3.11,3.11,0,0,1-.94-.12,1.5,1.5,0,0,1-.64-.39,1.52,1.52,0,0,1-.42-1.13,1.45,1.45,0,0,1,.5-1.17,2.11,2.11,0,0,1,1.43-.43h1.68v-.54a1.19,1.19,0,0,0-.34-.92,1.6,1.6,0,0,0-1.09-.3,2.16,2.16,0,0,0-.84.14,1.53,1.53,0,0,0-.56.5l-.56-.51a2,2,0,0,1,.52-.49,1.8,1.8,0,0,1,.64-.26,3.83,3.83,0,0,1,.81-.08,3.63,3.63,0,0,1,1,.12,1.87,1.87,0,0,1,.69.35,1.5,1.5,0,0,1,.41.58,2.14,2.14,0,0,1,.14.81Zm-.81-2v-.6h-1.57c-.82,0-1.24.33-1.24,1a.85.85,0,0,0,.31.72,1.67,1.67,0,0,0,1,.23,2.94,2.94,0,0,0,.71-.07,1.23,1.23,0,0,0,.53-.3A1.29,1.29,0,0,0,194.29,106.24Z"/><path class="cls-3" d="M205.52,102.52a2.66,2.66,0,0,1-.17,1,2.17,2.17,0,0,1-.51.75,2.28,2.28,0,0,1-.81.49,2.94,2.94,0,0,1-1,.16H200.9v3.31H200v-8h3a2.91,2.91,0,0,1,1,.17,2.17,2.17,0,0,1,.8.48,2.23,2.23,0,0,1,.51.74A2.72,2.72,0,0,1,205.52,102.52Zm-.86,0a1.71,1.71,0,0,0-.21-.88,1.39,1.39,0,0,0-.61-.54,2.08,2.08,0,0,0-.89-.18h-2v3.2h2a2.13,2.13,0,0,0,.9-.18,1.38,1.38,0,0,0,.6-.55A1.7,1.7,0,0,0,204.66,102.52Z"/><path class="cls-3" d="M211.26,105.42a5.75,5.75,0,0,1,0,.87,2.57,2.57,0,0,1-.2.72,1.93,1.93,0,0,1-.42.63,2.16,2.16,0,0,1-1.59.63,2.19,2.19,0,0,1-1.6-.63A1.81,1.81,0,0,1,207,107a2.93,2.93,0,0,1-.21-.73,5.67,5.67,0,0,1-.05-.87,4.79,4.79,0,0,1,.14-1.27,2.12,2.12,0,0,1,2.13-1.58,2.13,2.13,0,0,1,1.59.64,2,2,0,0,1,.53.93A4.92,4.92,0,0,1,211.26,105.42Zm-.81,0a5.12,5.12,0,0,0-.08-1,1.35,1.35,0,0,0-.36-.69,1.41,1.41,0,0,0-2.39.71,5.91,5.91,0,0,0-.08,1,5.82,5.82,0,0,0,.08,1,1.39,1.39,0,0,0,.37.71,1.36,1.36,0,0,0,1,.41,1.35,1.35,0,0,0,1-.41,1.28,1.28,0,0,0,.36-.69A5.06,5.06,0,0,0,210.45,105.42Z"/><path class="cls-3" d="M215,108.2h-.59a1.34,1.34,0,0,1-1.06-.4,1.63,1.63,0,0,1-.35-1.08v-6.57h.81v6.54a.9.9,0,0,0,.17.62.72.72,0,0,0,.58.19H215Z"/><path class="cls-3" d="M220.62,105.64h-3.75a2.11,2.11,0,0,0,.43,1.42,1.51,1.51,0,0,0,1.21.5,1.89,1.89,0,0,0,.79-.15,2.1,2.1,0,0,0,.67-.48l.56.49a3.36,3.36,0,0,1-.91.65,2.86,2.86,0,0,1-1.13.2,2.67,2.67,0,0,1-1.29-.3,2.07,2.07,0,0,1-.84-1,3.74,3.74,0,0,1-.3-1.6,4,4,0,0,1,.16-1.2,2.49,2.49,0,0,1,.45-.89,2,2,0,0,1,.72-.57,2.44,2.44,0,0,1,1-.19,2.24,2.24,0,0,1,1.23.33,2,2,0,0,1,.79.94,3.54,3.54,0,0,1,.26,1.43Zm-.81-.61a2.76,2.76,0,0,0-.17-.93,1.26,1.26,0,0,0-.51-.61,1.46,1.46,0,0,0-.79-.23,1.4,1.4,0,0,0-.78.23,1.24,1.24,0,0,0-.52.61,3.29,3.29,0,0,0-.17.93Z"/><path class="cls-3" d="M226.78,105.42a5.83,5.83,0,0,1-.15,1.38,2,2,0,0,1-.53,1,1.58,1.58,0,0,1-.58.35,2.07,2.07,0,0,1-.78.14,2.61,2.61,0,0,1-.59-.06,1.6,1.6,0,0,1-.52-.23,1.86,1.86,0,0,1-.46-.43v3.14h-.81v-8h.81v.65a1.76,1.76,0,0,1,.69-.56,2.16,2.16,0,0,1,.88-.16,2.55,2.55,0,0,1,.78.13,1.59,1.59,0,0,1,.58.36,2.07,2.07,0,0,1,.53,1A5.83,5.83,0,0,1,226.78,105.42Zm-.82,0a3.52,3.52,0,0,0-.28-1.55,1.35,1.35,0,0,0-2.22,0,4.29,4.29,0,0,0,0,3.1,1.36,1.36,0,0,0,2.22,0A3.54,3.54,0,0,0,226,105.42Z"/><path class="cls-3" d="M232.77,105.42a5.66,5.66,0,0,1-.06.87,2.57,2.57,0,0,1-.2.72,1.93,1.93,0,0,1-.42.63,2.32,2.32,0,0,1-3.18,0,2,2,0,0,1-.42-.62,2.93,2.93,0,0,1-.21-.73,7.3,7.3,0,0,1-.05-.87,5.24,5.24,0,0,1,.14-1.27,2.17,2.17,0,0,1,.54-.94,2.3,2.3,0,0,1,3.18,0,2,2,0,0,1,.53.93A4.89,4.89,0,0,1,232.77,105.42Zm-.81,0a5.05,5.05,0,0,0-.09-1,1.35,1.35,0,0,0-.36-.69,1.38,1.38,0,0,0-1-.41,1.4,1.4,0,0,0-1,.41,1.31,1.31,0,0,0-.36.71,5,5,0,0,0-.09,1,4.91,4.91,0,0,0,.09,1,1.31,1.31,0,0,0,.36.71,1.38,1.38,0,0,0,1,.41,1.35,1.35,0,0,0,1-.41,1.28,1.28,0,0,0,.36-.69A5,5,0,0,0,232,105.42Z"/><path class="cls-3" d="M236.49,108.2h-.59a1.3,1.3,0,0,1-1.05-.4,1.58,1.58,0,0,1-.36-1.08v-6.57h.81v6.54a1,1,0,0,0,.17.62.72.72,0,0,0,.58.19h.44Z"/><path class="cls-3" d="M242.13,105.64h-3.76a2.11,2.11,0,0,0,.43,1.42,1.52,1.52,0,0,0,1.21.5,1.89,1.89,0,0,0,.79-.15,2.25,2.25,0,0,0,.68-.48l.55.49a3.21,3.21,0,0,1-.91.65,2.82,2.82,0,0,1-1.13.2,2.6,2.6,0,0,1-1.28-.3,2,2,0,0,1-.85-1,3.74,3.74,0,0,1-.3-1.6,4,4,0,0,1,.16-1.2,2.49,2.49,0,0,1,.45-.89,1.93,1.93,0,0,1,.73-.57,2.4,2.4,0,0,1,.95-.19,2.2,2.2,0,0,1,1.22.33,2,2,0,0,1,.79.94,3.54,3.54,0,0,1,.27,1.43Zm-.81-.61a2.73,2.73,0,0,0-.18-.93,1.26,1.26,0,0,0-.51-.61,1.45,1.45,0,0,0-1.57,0,1.3,1.3,0,0,0-.52.61,3.29,3.29,0,0,0-.17.93Z"/><path class="cls-4" d="M105.41,68h-16V74.5h13.69v8.07H89.39V96.85H80.33V60h25.08Z"/><path class="cls-4" d="M123.61,96.85H119.1a9.12,9.12,0,0,1-4.86-1.2,7.41,7.41,0,0,1-2.87-3.12,8.85,8.85,0,0,1-.92-3.93V60H119V88a1.51,1.51,0,0,0,1.7,1.7h3Z"/><path class="cls-4" d="M152.16,85.69H135.48a4,4,0,0,0,1.33,3A5,5,0,0,0,140.39,90a8.18,8.18,0,0,0,3.33-.55,8.67,8.67,0,0,0,2.41-1.75l5.09,5a15.8,15.8,0,0,1-4.68,3.37,15.38,15.38,0,0,1-6.15,1.05q-13.26,0-13.26-14.25,0-6.7,3.45-10.47a11.64,11.64,0,0,1,9-3.77,12.72,12.72,0,0,1,6.77,1.74,11.36,11.36,0,0,1,4.32,4.74,15.11,15.11,0,0,1,1.47,6.75ZM143.75,80a5,5,0,0,0-.45-2.17,3.45,3.45,0,0,0-1.36-1.56,4.73,4.73,0,0,0-4.68,0,3.38,3.38,0,0,0-1.33,1.56,5,5,0,0,0-.45,2.17Z"/><path class="cls-4" d="M183,96.85H172.73l-4.25-7.06-4.15,7.06h-10.2l9.69-14.25L154.48,69h10.23l3.77,6.73,3.9-6.73h10.2L173.26,82.6Z"/><path class="cls-4" d="M213.91,71.82a11.94,11.94,0,0,1-1.48,5.82A11.42,11.42,0,0,1,208.11,82a13.21,13.21,0,0,1-6.8,1.67h-5.55V96.85H186.7V60h14.62a13.21,13.21,0,0,1,6.8,1.66A11.28,11.28,0,0,1,212.43,66,12,12,0,0,1,213.91,71.82Zm-9.06,0a3.81,3.81,0,0,0-.47-1.84A3.47,3.47,0,0,0,203,68.62a4.09,4.09,0,0,0-2.1-.52h-5.15v7.44h5.15A4.09,4.09,0,0,0,203,75a3.51,3.51,0,0,0,1.37-1.36A3.72,3.72,0,0,0,204.85,71.83Z"/><path class="cls-4" d="M240.48,96.85h-8.27V94.57a9.64,9.64,0,0,1-2.74,1.94,8.77,8.77,0,0,1-3.49.59,9,9,0,0,1-6.68-2.48,8.79,8.79,0,0,1-2.45-6.53,8.17,8.17,0,0,1,1-4A7.31,7.31,0,0,1,221,81.11,11.34,11.34,0,0,1,226.34,80H232v-.71a3.27,3.27,0,0,0-1-2.69,5.23,5.23,0,0,0-3.23-.77,6.28,6.28,0,0,0-2.49.4,6.67,6.67,0,0,0-2,1.45L218,72.38a12.12,12.12,0,0,1,4.4-2.94,17.72,17.72,0,0,1,5.78-.78c4,0,7.06.83,9.15,2.51s3.12,4.21,3.12,7.58ZM232,86.39v-.7h-4.3a3,3,0,0,0-2,.6A2,2,0,0,0,225,87.9a2.13,2.13,0,0,0,.74,1.65,2.91,2.91,0,0,0,2.05.67,8,8,0,0,0,2-.19,3.36,3.36,0,0,0,1.42-.84A3.84,3.84,0,0,0,232,86.39Z"/><path class="cls-4" d="M270.3,69l-11.57,31.2a9.17,9.17,0,0,1-2.18,3.67,8.08,8.08,0,0,1-6.25,2.36h-3.21V98.52h1.8a2.52,2.52,0,0,0,2.86-2.08l.78-2.35L243.24,69h8.91l4.73,14.48L261.39,69Z"/></svg>